<svg xmlns="http://www.w3.org/2000/svg" width="18" height="18" viewBox="0 0 18 18" fill="#000000">
  <!-- Ping Island menu bar icon — filled notch island with three punched-out dots (hollow). Template source: black shape + alpha; dots are real transparency via even-odd. -->
  <path fill-rule="evenodd" d="M4.9 6.1 H13.1 A2.9 2.9 0 0 1 13.1 11.9 H4.9 A2.9 2.9 0 0 1 4.9 6.1 Z
    M4.15 9 A1.35 1.35 0 1 0 6.85 9 A1.35 1.35 0 1 0 4.15 9 Z
    M7.65 9 A1.35 1.35 0 1 0 10.35 9 A1.35 1.35 0 1 0 7.65 9 Z
    M11.15 9 A1.35 1.35 0 1 0 13.85 9 A1.35 1.35 0 1 0 11.15 9 Z"/>
</svg>
